<svg width="31" height="31" viewBox="0 0 31 31" fill="none" xmlns="http://www.w3.org/2000/svg">
<path d="M17.9429 28.9687L29.86 15.5614C30.1007 15.2836 30.102 14.8354 29.8627 14.5563L18.0199 1.08345C16.7577 -0.298684 14.7537 -0.304216 13.4779 1.07091C12.172 2.48671 12.1235 4.83639 13.3734 6.31358L17.9192 11.4876L3.17723 11.4469C1.44924 11.4421 0.0468727 13.0206 0.0414733 14.9765C0.0360926 16.9257 1.42972 18.5119 3.15771 18.5167L17.8997 18.5574L13.3254 23.7062C12.0494 25.1492 12.043 27.4922 13.311 28.9423C14.579 30.3992 16.6549 30.4117 17.9429 28.9687ZM14.1957 27.9532C13.4361 27.0818 13.4403 25.5741 14.2047 24.7069L19.8502 18.359C19.9646 18.2303 20.0311 18.0471 20.0316 17.8637C20.0326 17.4766 19.7575 17.1567 19.4095 17.1557L3.16159 17.1109C2.1236 17.108 1.29222 16.1549 1.29545 14.9868C1.29867 13.8187 2.1413 12.8702 3.17329 12.8731L19.4212 12.9179C19.7632 12.9189 20.0461 12.6004 20.0472 12.2133C20.0477 12.0232 19.9822 11.8464 19.8685 11.7171L14.2582 5.33127C13.4986 4.45987 13.5027 2.9522 14.2671 2.08501C15.0616 1.19074 16.3456 1.19428 17.1351 2.09293L28.5294 15.0552L17.0637 27.9611C16.2692 28.8554 14.9852 28.8518 14.1957 27.9532Z" fill="#010101"/>
</svg>
